<svg id="visual" viewBox="0 0 1920 1080" width="1920" height="1080" xmlns="http://www.w3.org/2000/svg" xmlns:xlink="http://www.w3.org/1999/xlink" version="1.1"><rect width="1920" height="1080" fill="#cccccc"></rect><g><g transform="translate(249 283)"><path d="M0 -174L150.7 -87L150.7 87L0 174L-150.7 87L-150.7 -87Z" stroke="#5000b0" fill="none" stroke-width="3"></path></g><g transform="translate(1159 739)"><path d="M0 -169L146.4 -84.5L146.4 84.5L0 169L-146.4 84.5L-146.4 -84.5Z" stroke="#5000b0" fill="none" stroke-width="3"></path></g><g transform="translate(1326 223)"><path d="M0 -149L129 -74.5L129 74.5L0 149L-129 74.5L-129 -74.5Z" stroke="#5000b0" fill="none" stroke-width="3"></path></g><g transform="translate(503 615)"><path d="M0 -87L75.3 -43.5L75.3 43.5L0 87L-75.3 43.5L-75.3 -43.5Z" stroke="#5000b0" fill="none" stroke-width="3"></path></g><g transform="translate(842 447)"><path d="M0 -81L70.1 -40.5L70.1 40.5L0 81L-70.1 40.5L-70.1 -40.5Z" stroke="#5000b0" fill="none" stroke-width="3"></path></g><g transform="translate(1536 643)"><path d="M0 -90L77.9 -45L77.9 45L0 90L-77.9 45L-77.9 -45Z" stroke="#5000b0" fill="none" stroke-width="3"></path></g><g transform="translate(204 894)"><path d="M0 -46L39.8 -23L39.8 23L0 46L-39.8 23L-39.8 -23Z" stroke="#5000b0" fill="none" stroke-width="3"></path></g><g transform="translate(808 863)"><path d="M0 -55L47.6 -27.5L47.6 27.5L0 55L-47.6 27.5L-47.6 -27.5Z" stroke="#5000b0" fill="none" stroke-width="3"></path></g><g transform="translate(1713 307)"><path d="M0 -162L140.3 -81L140.3 81L0 162L-140.3 81L-140.3 -81Z" stroke="#5000b0" fill="none" stroke-width="3"></path></g><g transform="translate(599 179)"><path d="M0 -113L97.9 -56.5L97.9 56.5L0 113L-97.9 56.5L-97.9 -56.5Z" stroke="#5000b0" fill="none" stroke-width="3"></path></g></g></svg>