<svg id="visual" viewBox="0 0 960 150" width="960" height="150" xmlns="http://www.w3.org/2000/svg" xmlns:xlink="http://www.w3.org/1999/xlink" version="1.1"><rect x="0" y="0" width="960" height="150" fill="#cccccc"></rect><path d="M0 121L87 105L175 107L262 121L349 115L436 89L524 92L611 101L698 97L785 103L873 94L960 88L960 0L873 0L785 0L698 0L611 0L524 0L436 0L349 0L262 0L175 0L87 0L0 0Z" fill="#b5abbe"></path><path d="M0 75L87 98L175 106L262 95L349 101L436 88L524 80L611 91L698 105L785 84L873 103L960 92L960 0L873 0L785 0L698 0L611 0L524 0L436 0L349 0L262 0L175 0L87 0L0 0Z" fill="#a892bd"></path><path d="M0 80L87 75L175 70L262 94L349 63L436 88L524 88L611 63L698 75L785 77L873 79L960 62L960 0L873 0L785 0L698 0L611 0L524 0L436 0L349 0L262 0L175 0L87 0L0 0Z" fill="#9a7abb"></path><path d="M0 51L87 57L175 58L262 53L349 48L436 50L524 76L611 73L698 68L785 65L873 71L960 55L960 0L873 0L785 0L698 0L611 0L524 0L436 0L349 0L262 0L175 0L87 0L0 0Z" fill="#8b61b9"></path><path d="M0 57L87 44L175 47L262 53L349 40L436 49L524 51L611 59L698 58L785 58L873 42L960 46L960 0L873 0L785 0L698 0L611 0L524 0L436 0L349 0L262 0L175 0L87 0L0 0Z" fill="#7a48b6"></path><path d="M0 34L87 32L175 29L262 43L349 36L436 34L524 23L611 32L698 37L785 43L873 22L960 28L960 0L873 0L785 0L698 0L611 0L524 0L436 0L349 0L262 0L175 0L87 0L0 0Z" fill="#672cb3"></path><path d="M0 27L87 19L175 15L262 21L349 12L436 15L524 11L611 23L698 23L785 24L873 15L960 17L960 0L873 0L785 0L698 0L611 0L524 0L436 0L349 0L262 0L175 0L87 0L0 0Z" fill="#5000b0"></path></svg>